<mxfile host="app.diagrams.net" modified="2021-08-18T16:05:06.396Z" agent="5.0 (Macintosh; Intel Mac OS X 10_14_6) AppleWebKit/537.36 (KHTML, like Gecko) Chrome/91.0.4472.164 Safari/537.36" etag="ANBX55kx6DgjP7EwD21v" version="14.9.7" type="github" pages="3">
  <diagram id="t5bjnoOTklAN3rbpLu2R" name="Page-1">
    <mxGraphModel dx="1554" dy="809" grid="1" gridSize="10" guides="1" tooltips="1" connect="1" arrows="1" fold="1" page="1" pageScale="1" pageWidth="850" pageHeight="1100" math="0" shadow="0">
      <root>
        <mxCell id="0" />
        <mxCell id="1" parent="0" />
        <mxCell id="KdfR5vk8VB3_FWqlwgTo-1" value="&lt;h1&gt;系统体系架构图&lt;/h1&gt;&lt;p&gt;本图概括描述系统的前后端软硬件体系架构&lt;/p&gt;" style="text;html=1;strokeColor=none;fillColor=none;spacing=5;spacingTop=-20;whiteSpace=wrap;overflow=hidden;rounded=0;align=center;" parent="1" vertex="1">
          <mxGeometry x="299" y="100" width="260" height="120" as="geometry" />
        </mxCell>
        <mxCell id="KdfR5vk8VB3_FWqlwgTo-2" value="互联网" style="ellipse;shape=cloud;whiteSpace=wrap;html=1;fillColor=#e1d5e7;strokeColor=#9673a6;strokeWidth=2;" parent="1" vertex="1">
          <mxGeometry x="334" y="390" width="190" height="130" as="geometry" />
        </mxCell>
        <mxCell id="KdfR5vk8VB3_FWqlwgTo-9" style="edgeStyle=orthogonalEdgeStyle;rounded=0;orthogonalLoop=1;jettySize=auto;html=1;" parent="1" source="KdfR5vk8VB3_FWqlwgTo-5" edge="1">
          <mxGeometry relative="1" as="geometry">
            <mxPoint x="434" y="400" as="targetPoint" />
            <Array as="points">
              <mxPoint x="100" y="330" />
              <mxPoint x="434" y="330" />
            </Array>
          </mxGeometry>
        </mxCell>
        <mxCell id="KdfR5vk8VB3_FWqlwgTo-5" value="客户机（前台界面）" style="points=[];aspect=fixed;html=1;align=center;shadow=0;dashed=0;image;image=img/lib/allied_telesis/computer_and_terminals/Personal_Computer_with_Server.svg;strokeWidth=2;" parent="1" vertex="1">
          <mxGeometry x="60" y="230" width="62.400000000000006" height="62.400000000000006" as="geometry" />
        </mxCell>
        <mxCell id="KdfR5vk8VB3_FWqlwgTo-11" style="edgeStyle=orthogonalEdgeStyle;rounded=0;orthogonalLoop=1;jettySize=auto;html=1;endArrow=none;endFill=0;" parent="1" source="KdfR5vk8VB3_FWqlwgTo-7" edge="1">
          <mxGeometry relative="1" as="geometry">
            <mxPoint x="311" y="330" as="targetPoint" />
            <Array as="points">
              <mxPoint x="311" y="330" />
            </Array>
          </mxGeometry>
        </mxCell>
        <mxCell id="KdfR5vk8VB3_FWqlwgTo-7" value="客户机（前台界面）" style="points=[];aspect=fixed;html=1;align=center;shadow=0;dashed=0;image;image=img/lib/allied_telesis/computer_and_terminals/Personal_Computer_with_Server.svg;strokeWidth=2;" parent="1" vertex="1">
          <mxGeometry x="280" y="230" width="62.400000000000006" height="62.400000000000006" as="geometry" />
        </mxCell>
        <mxCell id="KdfR5vk8VB3_FWqlwgTo-12" style="edgeStyle=orthogonalEdgeStyle;rounded=0;orthogonalLoop=1;jettySize=auto;html=1;" parent="1" source="KdfR5vk8VB3_FWqlwgTo-8" edge="1">
          <mxGeometry relative="1" as="geometry">
            <mxPoint x="434" y="400" as="targetPoint" />
            <Array as="points">
              <mxPoint x="705" y="330" />
              <mxPoint x="434" y="330" />
            </Array>
          </mxGeometry>
        </mxCell>
        <mxCell id="KdfR5vk8VB3_FWqlwgTo-8" value="客户机（后台界面）" style="points=[];aspect=fixed;html=1;align=center;shadow=0;dashed=0;image;image=img/lib/allied_telesis/computer_and_terminals/Personal_Computer_with_Server.svg;strokeWidth=2;" parent="1" vertex="1">
          <mxGeometry x="674" y="230" width="62.400000000000006" height="62.400000000000006" as="geometry" />
        </mxCell>
        <mxCell id="KdfR5vk8VB3_FWqlwgTo-19" style="edgeStyle=orthogonalEdgeStyle;rounded=0;orthogonalLoop=1;jettySize=auto;html=1;" parent="1" source="KdfR5vk8VB3_FWqlwgTo-15" target="KdfR5vk8VB3_FWqlwgTo-18" edge="1">
          <mxGeometry relative="1" as="geometry" />
        </mxCell>
        <mxCell id="KdfR5vk8VB3_FWqlwgTo-21" value="" style="edgeStyle=orthogonalEdgeStyle;rounded=0;orthogonalLoop=1;jettySize=auto;html=1;" parent="1" source="KdfR5vk8VB3_FWqlwgTo-15" target="KdfR5vk8VB3_FWqlwgTo-2" edge="1">
          <mxGeometry relative="1" as="geometry" />
        </mxCell>
        <mxCell id="KdfR5vk8VB3_FWqlwgTo-15" value="应用服务器（Linux）" style="points=[];aspect=fixed;html=1;align=center;shadow=0;dashed=0;image;image=img/lib/allied_telesis/storage/Datacenter_Server_Half_Rack_ToR.svg;strokeWidth=2;" parent="1" vertex="1">
          <mxGeometry x="384.9" y="560" width="88.2" height="114.6" as="geometry" />
        </mxCell>
        <mxCell id="KdfR5vk8VB3_FWqlwgTo-18" value="数据服务器（MySQL）" style="aspect=fixed;html=1;points=[];align=center;image;fontSize=12;image=img/lib/azure2/databases/Azure_Database_MySQL_Server.svg;strokeWidth=2;" parent="1" vertex="1">
          <mxGeometry x="405" y="740" width="48" height="64" as="geometry" />
        </mxCell>
        <mxCell id="KdfR5vk8VB3_FWqlwgTo-22" value="选址顾问" style="outlineConnect=0;dashed=0;verticalLabelPosition=bottom;verticalAlign=top;align=center;html=1;shape=mxgraph.aws3.user;fillColor=#e6d0de;strokeWidth=2;strokeColor=#996185;gradientColor=#d5739d;" parent="1" vertex="1">
          <mxGeometry x="138.84" y="216.5" width="30.71" height="43" as="geometry" />
        </mxCell>
        <mxCell id="KdfR5vk8VB3_FWqlwgTo-23" value="企业" style="outlineConnect=0;dashed=0;verticalLabelPosition=bottom;verticalAlign=top;align=center;html=1;shape=mxgraph.aws3.user;fillColor=#e6d0de;strokeWidth=2;strokeColor=#996185;gradientColor=#d5739d;" parent="1" vertex="1">
          <mxGeometry x="179" y="216.5" width="30.71" height="43" as="geometry" />
        </mxCell>
        <mxCell id="KdfR5vk8VB3_FWqlwgTo-24" value="园区负责人" style="outlineConnect=0;dashed=0;verticalLabelPosition=bottom;verticalAlign=top;align=center;html=1;shape=mxgraph.aws3.user;fillColor=#e6d0de;strokeWidth=2;strokeColor=#996185;gradientColor=#d5739d;" parent="1" vertex="1">
          <mxGeometry x="365" y="216.5" width="30.71" height="43" as="geometry" />
        </mxCell>
        <mxCell id="KdfR5vk8VB3_FWqlwgTo-26" style="edgeStyle=orthogonalEdgeStyle;rounded=0;orthogonalLoop=1;jettySize=auto;html=1;endArrow=none;endFill=0;" parent="1" source="KdfR5vk8VB3_FWqlwgTo-25" edge="1">
          <mxGeometry relative="1" as="geometry">
            <mxPoint x="501" y="330" as="targetPoint" />
            <Array as="points">
              <mxPoint x="501" y="330" />
            </Array>
          </mxGeometry>
        </mxCell>
        <mxCell id="KdfR5vk8VB3_FWqlwgTo-25" value="客户机（前台界面）" style="points=[];aspect=fixed;html=1;align=center;shadow=0;dashed=0;image;image=img/lib/allied_telesis/computer_and_terminals/Personal_Computer_with_Server.svg;strokeWidth=2;" parent="1" vertex="1">
          <mxGeometry x="470" y="230" width="62.400000000000006" height="62.400000000000006" as="geometry" />
        </mxCell>
        <mxCell id="KdfR5vk8VB3_FWqlwgTo-27" value="游客" style="outlineConnect=0;dashed=0;verticalLabelPosition=bottom;verticalAlign=top;align=center;html=1;shape=mxgraph.aws3.user;fillColor=#e6d0de;strokeWidth=2;strokeColor=#996185;gradientColor=#d5739d;" parent="1" vertex="1">
          <mxGeometry x="546" y="216.5" width="30.71" height="43" as="geometry" />
        </mxCell>
        <mxCell id="KdfR5vk8VB3_FWqlwgTo-28" value="管理员" style="aspect=fixed;html=1;points=[];align=center;image;fontSize=12;image=img/lib/azure2/azure_stack/User_Subscriptions.svg;strokeWidth=2;" parent="1" vertex="1">
          <mxGeometry x="748" y="220" width="37.09" height="36" as="geometry" />
        </mxCell>
      </root>
    </mxGraphModel>
  </diagram>
  <diagram id="RMk6UPkrUwPBY6XE2Z65" name="Page-2">
    <mxGraphModel dx="1554" dy="809" grid="1" gridSize="10" guides="1" tooltips="1" connect="1" arrows="1" fold="1" page="1" pageScale="1" pageWidth="1654" pageHeight="1169" math="0" shadow="0">
      <root>
        <mxCell id="5GB9t9Gkm3raiz3WqZ3W-0" />
        <mxCell id="5GB9t9Gkm3raiz3WqZ3W-1" parent="5GB9t9Gkm3raiz3WqZ3W-0" />
        <mxCell id="eqWKFpj_xqiHHcuHPtP5-14" value="" style="rounded=0;whiteSpace=wrap;html=1;strokeWidth=2;align=center;fillColor=#efefef;" parent="5GB9t9Gkm3raiz3WqZ3W-1" vertex="1">
          <mxGeometry x="90" y="180" width="680" height="480" as="geometry" />
        </mxCell>
        <mxCell id="wC5r_SAoMUC1ZfNTlYGX-0" value="&lt;h1&gt;系统技术架构图&lt;/h1&gt;&lt;p&gt;本图演示了系统前后端使用的主要技术及其之间的相互联系&lt;/p&gt;" style="text;html=1;strokeColor=none;fillColor=none;spacing=5;spacingTop=-20;whiteSpace=wrap;overflow=hidden;rounded=0;align=center;" parent="5GB9t9Gkm3raiz3WqZ3W-1" vertex="1">
          <mxGeometry x="657" y="60" width="341" height="120" as="geometry" />
        </mxCell>
        <mxCell id="eqWKFpj_xqiHHcuHPtP5-0" value="用户界面" style="rounded=0;whiteSpace=wrap;html=1;strokeWidth=2;align=center;gradientColor=#d5739d;fillColor=#e6d0de;strokeColor=#996185;" parent="5GB9t9Gkm3raiz3WqZ3W-1" vertex="1">
          <mxGeometry x="130" y="270" width="600" height="70" as="geometry" />
        </mxCell>
        <mxCell id="eqWKFpj_xqiHHcuHPtP5-2" value="HTML / DOM" style="rounded=0;whiteSpace=wrap;html=1;strokeWidth=2;align=center;gradientColor=#d5739d;fillColor=#e6d0de;strokeColor=#996185;" parent="5GB9t9Gkm3raiz3WqZ3W-1" vertex="1">
          <mxGeometry x="130" y="410" width="130" height="70" as="geometry" />
        </mxCell>
        <mxCell id="eqWKFpj_xqiHHcuHPtP5-3" value="CSS" style="rounded=0;whiteSpace=wrap;html=1;strokeWidth=2;align=center;gradientColor=#d5739d;fillColor=#e6d0de;strokeColor=#996185;" parent="5GB9t9Gkm3raiz3WqZ3W-1" vertex="1">
          <mxGeometry x="260" y="410" width="130" height="70" as="geometry" />
        </mxCell>
        <mxCell id="eqWKFpj_xqiHHcuHPtP5-4" value="Javascript" style="rounded=0;whiteSpace=wrap;html=1;strokeWidth=2;align=center;gradientColor=#d5739d;fillColor=#e6d0de;strokeColor=#996185;" parent="5GB9t9Gkm3raiz3WqZ3W-1" vertex="1">
          <mxGeometry x="390" y="410" width="130" height="70" as="geometry" />
        </mxCell>
        <mxCell id="eqWKFpj_xqiHHcuHPtP5-5" value="前端框架（jQuery、Bootstrap等）" style="rounded=0;whiteSpace=wrap;html=1;strokeWidth=2;align=center;gradientColor=#d5739d;fillColor=#e6d0de;strokeColor=#996185;" parent="5GB9t9Gkm3raiz3WqZ3W-1" vertex="1">
          <mxGeometry x="130" y="340" width="600" height="70" as="geometry" />
        </mxCell>
        <mxCell id="eqWKFpj_xqiHHcuHPtP5-6" value="浏览器（IE、谷歌Chrome等）" style="rounded=0;whiteSpace=wrap;html=1;strokeWidth=2;align=center;gradientColor=#d5739d;fillColor=#e6d0de;strokeColor=#996185;" parent="5GB9t9Gkm3raiz3WqZ3W-1" vertex="1">
          <mxGeometry x="130" y="480" width="390" height="70" as="geometry" />
        </mxCell>
        <mxCell id="eqWKFpj_xqiHHcuHPtP5-7" value="客户端数据存储&lt;br&gt;（LocalStorage、Cookie等）" style="rounded=0;whiteSpace=wrap;html=1;strokeWidth=2;align=center;gradientColor=#d5739d;fillColor=#e6d0de;strokeColor=#996185;" parent="5GB9t9Gkm3raiz3WqZ3W-1" vertex="1">
          <mxGeometry x="520" y="410" width="210" height="140" as="geometry" />
        </mxCell>
        <mxCell id="eqWKFpj_xqiHHcuHPtP5-8" value="客户端硬件和操作系统（Windows、Mac OS等）" style="rounded=0;whiteSpace=wrap;html=1;strokeWidth=2;align=center;gradientColor=#d5739d;fillColor=#e6d0de;strokeColor=#996185;" parent="5GB9t9Gkm3raiz3WqZ3W-1" vertex="1">
          <mxGeometry x="130" y="550" width="600" height="70" as="geometry" />
        </mxCell>
        <mxCell id="eqWKFpj_xqiHHcuHPtP5-15" value="客户端" style="text;html=1;strokeColor=none;fillColor=none;align=center;verticalAlign=middle;whiteSpace=wrap;rounded=0;fontSize=14;fontStyle=1" parent="5GB9t9Gkm3raiz3WqZ3W-1" vertex="1">
          <mxGeometry x="380" y="220" width="100" height="20" as="geometry" />
        </mxCell>
        <mxCell id="eqWKFpj_xqiHHcuHPtP5-17" value="" style="rounded=0;whiteSpace=wrap;html=1;strokeWidth=2;align=center;fillColor=#efefef;" parent="5GB9t9Gkm3raiz3WqZ3W-1" vertex="1">
          <mxGeometry x="880" y="180" width="680" height="480" as="geometry" />
        </mxCell>
        <mxCell id="eqWKFpj_xqiHHcuHPtP5-18" value="服务器请求-响应进程" style="rounded=0;whiteSpace=wrap;html=1;strokeWidth=2;align=center;gradientColor=#7ea6e0;fillColor=#dae8fc;strokeColor=#6c8ebf;" parent="5GB9t9Gkm3raiz3WqZ3W-1" vertex="1">
          <mxGeometry x="920" y="270" width="600" height="70" as="geometry" />
        </mxCell>
        <mxCell id="eqWKFpj_xqiHHcuHPtP5-19" value="Web编程语言 - PHP" style="rounded=0;whiteSpace=wrap;html=1;strokeWidth=2;align=center;gradientColor=#7ea6e0;fillColor=#dae8fc;strokeColor=#6c8ebf;" parent="5GB9t9Gkm3raiz3WqZ3W-1" vertex="1">
          <mxGeometry x="920" y="410" width="600" height="70" as="geometry" />
        </mxCell>
        <mxCell id="eqWKFpj_xqiHHcuHPtP5-22" value="服务器端框架 - Symfony" style="rounded=0;whiteSpace=wrap;html=1;strokeWidth=2;align=center;gradientColor=#7ea6e0;fillColor=#dae8fc;strokeColor=#6c8ebf;" parent="5GB9t9Gkm3raiz3WqZ3W-1" vertex="1">
          <mxGeometry x="920" y="340" width="600" height="70" as="geometry" />
        </mxCell>
        <mxCell id="eqWKFpj_xqiHHcuHPtP5-23" value="Web服务软件 - Apache" style="rounded=0;whiteSpace=wrap;html=1;strokeWidth=2;align=center;gradientColor=#7ea6e0;fillColor=#dae8fc;strokeColor=#6c8ebf;" parent="5GB9t9Gkm3raiz3WqZ3W-1" vertex="1">
          <mxGeometry x="920" y="480" width="210" height="70" as="geometry" />
        </mxCell>
        <mxCell id="eqWKFpj_xqiHHcuHPtP5-24" value="数据库 - MySQL" style="rounded=0;whiteSpace=wrap;html=1;strokeWidth=2;align=center;gradientColor=#7ea6e0;fillColor=#dae8fc;strokeColor=#6c8ebf;" parent="5GB9t9Gkm3raiz3WqZ3W-1" vertex="1">
          <mxGeometry x="1330" y="480" width="190" height="70" as="geometry" />
        </mxCell>
        <mxCell id="eqWKFpj_xqiHHcuHPtP5-25" value="服务器端硬件和操作系统 - Linux" style="rounded=0;whiteSpace=wrap;html=1;strokeWidth=2;align=center;gradientColor=#7ea6e0;fillColor=#dae8fc;strokeColor=#6c8ebf;" parent="5GB9t9Gkm3raiz3WqZ3W-1" vertex="1">
          <mxGeometry x="920" y="550" width="600" height="70" as="geometry" />
        </mxCell>
        <mxCell id="eqWKFpj_xqiHHcuHPtP5-26" value="服务器端" style="text;html=1;strokeColor=none;fillColor=none;align=center;verticalAlign=middle;whiteSpace=wrap;rounded=0;fontSize=14;fontStyle=1" parent="5GB9t9Gkm3raiz3WqZ3W-1" vertex="1">
          <mxGeometry x="1170" y="220" width="100" height="20" as="geometry" />
        </mxCell>
        <mxCell id="eqWKFpj_xqiHHcuHPtP5-27" value="" style="rounded=0;whiteSpace=wrap;html=1;fontSize=14;strokeWidth=2;align=center;fillColor=#eFeFeF;" parent="5GB9t9Gkm3raiz3WqZ3W-1" vertex="1">
          <mxGeometry x="780" y="180" width="90" height="480" as="geometry" />
        </mxCell>
        <mxCell id="eqWKFpj_xqiHHcuHPtP5-32" style="edgeStyle=orthogonalEdgeStyle;rounded=0;orthogonalLoop=1;jettySize=auto;html=1;entryX=0;entryY=0.5;entryDx=0;entryDy=0;fontSize=14;endArrow=block;endFill=0;shape=flexArrow;startArrow=block;" parent="5GB9t9Gkm3raiz3WqZ3W-1" source="eqWKFpj_xqiHHcuHPtP5-8" target="eqWKFpj_xqiHHcuHPtP5-18" edge="1">
          <mxGeometry relative="1" as="geometry" />
        </mxCell>
        <mxCell id="eqWKFpj_xqiHHcuHPtP5-33" value="互联网&lt;br&gt;软硬件" style="text;html=1;strokeColor=none;fillColor=none;align=center;verticalAlign=middle;whiteSpace=wrap;rounded=0;fontSize=14;fontStyle=1" parent="5GB9t9Gkm3raiz3WqZ3W-1" vertex="1">
          <mxGeometry x="797" y="230" width="60" height="20" as="geometry" />
        </mxCell>
        <mxCell id="eqWKFpj_xqiHHcuHPtP5-35" value="服务器文件系统" style="rounded=0;whiteSpace=wrap;html=1;strokeWidth=2;align=center;gradientColor=#7ea6e0;fillColor=#dae8fc;strokeColor=#6c8ebf;" parent="5GB9t9Gkm3raiz3WqZ3W-1" vertex="1">
          <mxGeometry x="1130" y="480" width="200" height="70" as="geometry" />
        </mxCell>
      </root>
    </mxGraphModel>
  </diagram>
  <diagram id="reL8us6E6vO18gqQACd1" name="Page-3">
    <mxGraphModel dx="1554" dy="809" grid="1" gridSize="10" guides="1" tooltips="1" connect="1" arrows="1" fold="1" page="1" pageScale="1" pageWidth="1654" pageHeight="1169" math="0" shadow="0">
      <root>
        <mxCell id="z5PlAt4YElqV6MN-Wqwg-0" />
        <mxCell id="z5PlAt4YElqV6MN-Wqwg-1" parent="z5PlAt4YElqV6MN-Wqwg-0" />
      </root>
    </mxGraphModel>
  </diagram>
</mxfile>
